<?xml version="1.0" encoding="UTF-8"?>
<svg version="1.1" xmlns="http://www.w3.org/2000/svg" width="96" height="96">
<path d="M0 0 C0.69641602 -0.00700928 1.39283203 -0.01401855 2.11035156 -0.02124023 C4.40730932 -0.03881383 6.70303021 -0.02720107 9 -0.01367188 C10.59896073 -0.01636701 12.19791987 -0.0202496 13.796875 -0.02526855 C17.14599226 -0.03116269 20.49468243 -0.0226038 23.84375 -0.00390625 C28.13478591 0.01888377 32.42482111 0.00576017 36.71582031 -0.01819611 C40.01700366 -0.03265667 43.31795011 -0.02804703 46.61914062 -0.01768494 C48.20117308 -0.01501834 49.78322711 -0.0182851 51.36523438 -0.02760315 C53.57740163 -0.03777366 55.787953 -0.02226378 58 0 C59.8871875 0.00477356 59.8871875 0.00477356 61.8125 0.00964355 C65 0.51757812 65 0.51757812 67.40515137 2.18127441 C69.41595338 5.12691082 69.50675768 6.86307399 69.51757812 10.41601562 C69.53018677 11.60404785 69.54279541 12.79208008 69.55578613 14.01611328 C69.54768921 15.29534668 69.53959229 16.57458008 69.53125 17.89257812 C69.53699036 19.86750244 69.53699036 19.86750244 69.54284668 21.88232422 C69.54873724 24.66653247 69.54019414 27.45022662 69.52148438 30.234375 C69.49869376 33.79907145 69.5118194 37.3625633 69.53577423 40.92721558 C69.5537233 44.33243243 69.54114777 47.73732706 69.53125 51.14257812 C69.53934692 52.42181152 69.54744385 53.70104492 69.55578613 55.01904297 C69.54317749 56.2070752 69.53056885 57.39510742 69.51757812 58.61914062 C69.51439575 59.66408691 69.51121338 60.7090332 69.50793457 61.78564453 C68.84897971 65.32984296 67.95900085 66.47077192 65 68.51757812 C61.8125 69.0255127 61.8125 69.0255127 58 69.03515625 C57.30358398 69.04216553 56.60716797 69.0491748 55.88964844 69.05639648 C53.59269068 69.07397008 51.29696979 69.06235732 49 69.04882812 C47.40103927 69.05152326 45.80208013 69.05540585 44.203125 69.0604248 C40.85400774 69.06631894 37.50531757 69.05776005 34.15625 69.0390625 C29.86521409 69.01627248 25.57517889 69.02939608 21.28417969 69.05335236 C17.98299634 69.06781292 14.68204989 69.06320328 11.38085938 69.05284119 C9.79882692 69.05017459 8.21677289 69.05344135 6.63476562 69.0627594 C4.42259837 69.07292991 2.212047 69.05742003 0 69.03515625 C-1.258125 69.03197388 -2.51625 69.0287915 -3.8125 69.0255127 C-7 68.51757812 -7 68.51757812 -9.40515137 66.85388184 C-11.41595338 63.90824543 -11.50675768 62.17208226 -11.51757812 58.61914062 C-11.53018677 57.4311084 -11.54279541 56.24307617 -11.55578613 55.01904297 C-11.54364075 53.10019287 -11.54364075 53.10019287 -11.53125 51.14257812 C-11.5350769 49.82596191 -11.53890381 48.5093457 -11.54284668 47.15283203 C-11.54873724 44.36862378 -11.54019414 41.58492963 -11.52148438 38.80078125 C-11.49869376 35.2360848 -11.5118194 31.67259295 -11.53577423 28.10794067 C-11.5537233 24.70272382 -11.54114777 21.29782919 -11.53125 17.89257812 C-11.53934692 16.61334473 -11.54744385 15.33411133 -11.55578613 14.01611328 C-11.54317749 12.82808105 -11.53056885 11.64004883 -11.51757812 10.41601562 C-11.51439575 9.37106934 -11.51121338 8.32612305 -11.50793457 7.24951172 C-10.27584896 0.62272105 -6.06530645 0.01534193 0 0 Z " fill="#FEC007" transform="translate(19,13.482421875)"/>
<path d="M0 0 C1.50312744 -0.00717545 1.50312744 -0.00717545 3.03662109 -0.01449585 C5.15138319 -0.01789228 7.26619798 -0.00870791 9.38085938 0.01220703 C12.61447421 0.03897537 15.8446179 0.01244957 19.078125 -0.01953125 C21.13542431 -0.01622711 23.19272147 -0.00982078 25.25 0 C26.21470215 -0.01012115 27.1794043 -0.02024231 28.17333984 -0.03067017 C32.62563696 0.04691585 34.97439263 0.22532115 38.73632812 2.76220703 C41.07728433 6.3589761 41.2431731 8.48376995 41.21875 12.7578125 C41.21879028 13.42695679 41.21883057 14.09610107 41.21887207 14.78552246 C41.21353279 16.19418783 41.19601758 17.60285404 41.16699219 19.01123047 C41.12511513 21.15815998 41.12592865 23.3019493 41.1328125 25.44921875 C41.04131611 37.42686478 41.04131611 37.42686478 37.625 41.6640625 C36.635 41.6640625 35.645 41.6640625 34.625 41.6640625 C34.86839111 40.6436084 34.86839111 40.6436084 35.11669922 39.60253906 C35.69908489 36.23577923 35.75466432 33.06556309 35.7578125 29.6484375 C35.75876923 28.99200256 35.75972595 28.33556763 35.76071167 27.65924072 C35.7613888 26.28096419 35.75956723 24.90268438 35.75537109 23.52441406 C35.74998159 21.40682937 35.75534936 19.28945346 35.76171875 17.171875 C35.76105856 15.8307287 35.75977862 14.48958252 35.7578125 13.1484375 C35.75612061 11.31877441 35.75612061 11.31877441 35.75439453 9.45214844 C35.94300561 6.75754641 35.94300561 6.75754641 34.625 5.6640625 C33.24890118 5.56610939 31.86786118 5.53608162 30.48828125 5.53466797 C29.61067139 5.53151581 28.73306152 5.52836365 27.82885742 5.52511597 C26.87470947 5.5271402 25.92056152 5.52916443 24.9375 5.53125 C23.96466064 5.53029327 22.99182129 5.52933655 21.98950195 5.52835083 C19.928222 5.52766892 17.86693992 5.52952397 15.80566406 5.53369141 C12.63862312 5.5390395 9.471724 5.53374678 6.3046875 5.52734375 C4.30729135 5.52800453 2.30989529 5.52928569 0.3125 5.53125 C-0.64164795 5.52922577 -1.5957959 5.52720154 -2.57885742 5.52511597 C-3.89527222 5.52984421 -3.89527222 5.52984421 -5.23828125 5.53466797 C-6.01469971 5.53546356 -6.79111816 5.53625916 -7.59106445 5.53707886 C-9.39933662 5.47002708 -9.39933662 5.47002708 -10.375 6.6640625 C-10.47512401 8.87056906 -10.5058118 11.08028636 -10.5078125 13.2890625 C-10.50876923 13.95115723 -10.50972595 14.61325195 -10.51071167 15.29541016 C-10.51139326 16.69759211 -10.50954042 18.0997772 -10.50537109 19.50195312 C-10.50002246 21.65501963 -10.5053167 23.80787752 -10.51171875 25.9609375 C-10.51105796 27.32031296 -10.50977679 28.6796883 -10.5078125 30.0390625 C-10.50668457 31.28429687 -10.50555664 32.52953125 -10.50439453 33.8125 C-10.70072127 36.56311681 -10.70072127 36.56311681 -9.375 37.6640625 C-9.33436168 39.33023365 -9.332279 40.99794345 -9.375 42.6640625 C-14.25 40.0390625 -14.25 40.0390625 -15.375 36.6640625 C-15.64787645 32.26833378 -15.68822326 27.87077564 -15.72509766 23.46777344 C-15.74166016 22.01871686 -15.76895506 20.5697421 -15.80712891 19.12109375 C-15.86206506 17.02301034 -15.88379062 14.92683187 -15.8984375 12.828125 C-15.91825684 11.57467285 -15.93807617 10.3212207 -15.95849609 9.02978516 C-15.375 5.6640625 -15.375 5.6640625 -13.49072266 2.7578125 C-9.01880233 -0.24729553 -5.27974559 -0.05539235 0 0 Z " fill="#262520" transform="translate(35.375,25.3359375)"/>
<path d="M0 0 C1.65 0.33 3.3 0.66 5 1 C5 12.22 5 23.44 5 35 C2.525 35.495 2.525 35.495 0 36 C-1.7329298 34.2670702 -1.12820046 32.03785664 -1.13894653 29.72851562 C-1.1369223 28.99310547 -1.13489807 28.25769531 -1.1328125 27.5 C-1.13376923 26.74912109 -1.13472595 25.99824219 -1.13571167 25.22460938 C-1.13639338 23.63411373 -1.13453972 22.04361533 -1.13037109 20.453125 C-1.12502267 18.01035345 -1.13031634 15.56776579 -1.13671875 13.125 C-1.13605797 11.58333293 -1.1347768 10.04166597 -1.1328125 8.5 C-1.13483673 7.76458984 -1.13686096 7.02917969 -1.13894653 6.27148438 C-1.11495161 1.11495161 -1.11495161 1.11495161 0 0 Z " fill="#252420" transform="translate(61,36)"/>
<path d="M0 0 C1.65 0.33 3.3 0.66 5 1 C5 9.58 5 18.16 5 27 C3.35 27.33 1.7 27.66 0 28 C-1.77449594 26.22550406 -1.13030072 23.64982739 -1.1328125 21.25 C-1.13410156 20.0846875 -1.13539062 18.919375 -1.13671875 17.71875 C-1.13285156 16.4915625 -1.12898438 15.264375 -1.125 14 C-1.12886719 12.7728125 -1.13273437 11.545625 -1.13671875 10.28125 C-1.13542969 9.1159375 -1.13414063 7.950625 -1.1328125 6.75 C-1.13168457 5.67234375 -1.13055664 4.5946875 -1.12939453 3.484375 C-1 1 -1 1 0 0 Z " fill="#272520" transform="translate(41,44)"/>
<path d="M0 0 C1.65 0.33 3.3 0.66 5 1 C5 7.6 5 14.2 5 21 C3.35 21.33 1.7 21.66 0 22 C-1.58937556 20.41062444 -1.12981143 18.76100154 -1.1328125 16.5625 C-1.13410156 15.66789062 -1.13539062 14.77328125 -1.13671875 13.8515625 C-1.13091797 12.44003906 -1.13091797 12.44003906 -1.125 11 C-1.12886719 10.05898438 -1.13273437 9.11796875 -1.13671875 8.1484375 C-1.13542969 7.25382812 -1.13414063 6.35921875 -1.1328125 5.4375 C-1.13112061 4.19806641 -1.13112061 4.19806641 -1.12939453 2.93359375 C-1 1 -1 1 0 0 Z " fill="#282620" transform="translate(51,50)"/>
<path d="M0 0 C1.65 0.33 3.3 0.66 5 1 C5 5.62 5 10.24 5 15 C3.35 15.33 1.7 15.66 0 16 C-1 15 -1 15 -1.1328125 11.875 C-1.13023438 10.59625 -1.12765625 9.3175 -1.125 8 C-1.12757812 6.72125 -1.13015625 5.4425 -1.1328125 4.125 C-1 1 -1 1 0 0 Z " fill="#2C281F" transform="translate(31,56)"/>
</svg>
